<svg xmlns="http://www.w3.org/2000/svg" viewBox="0 0 550 104"><path fill="#1E3B72" stroke="#FFF" stroke-miterlimit="10" d="M41.1 25.2c1-.4 2.6-.8 3.7-.8h14.1c1.1 0 2.7.4 3.7.8l1.8 1.8c.4 1 .8 2.6.8 3.7V43c0 1.1-.4 2.7-.8 3.7l-1.8 1.8c-1 .4-2.6.8-3.7.8H44.8c-1.1 0-2.7-.4-3.7-.8l-1.8-1.8c-.4-1-.8-2.6-.8-3.7V30.7c0-1.1.4-2.7.8-3.7l1.8-1.8z"/><path fill="#4F86B5" stroke="#FFF" stroke-miterlimit="10" d="M54 36.3c1-.4 2.6-.8 3.7-.8h14.1c1.1 0 2.7.4 3.7.8l1.8 1.8c.4 1 .8 2.6.8 3.7v12.3c0 1.1-.4 2.7-.8 3.7l-1.8 1.8c-1 .4-2.6.8-3.7.8H57.7c-1.1 0-2.7-.4-3.7-.8l-1.8-1.8c-.4-1-.8-2.6-.8-3.7V41.8c0-1.1.4-2.7.8-3.7l1.8-1.8z"/><path fill="#FFF" stroke="#FFF" stroke-miterlimit="10" d="M51.7 35.5c.7-.3 2.2-.6 3.2-.6H62c1.1 0 2.5.3 3.2.6.7.3 1.3 2.9 1.3 4v6c0 1.1-.3 2.5-.6 3.2-.3.7-2.9 1.3-3.9 1.3h-7.1c-1.1 0-2.5-.3-3.2-.6-.7-.3-1.3-2.9-1.3-4v-6c-.1-1 .5-3.6 1.3-3.9z"/><path fill="#1E3B72" d="M21.7 18c2.1-.9 5.6-1.7 7.8-1.7h30.1c2.3 0 5.8.7 7.8 1.7l3.9 3.9c.9 2.1 1.7 5.6 1.7 7.8V56c0 2.3-.8 5.8-1.7 7.8l-3.9 3.9c-2.1.9-5.6 1.7-7.8 1.7h-30c-2.3 0-5.8-.8-7.8-1.7l-4-3.7c-.9-2.1-1.7-5.6-1.7-7.8V29.8c0-2.3.8-5.8 1.7-7.8l3.9-4z"/><path fill="#FFF" d="M23.4 19.8c5.9-2.3 12.4-1.6 18.7-1.6 6.2 0 12.4-.2 18.6 0 1 0 2 .1 2.9.2-.4-.1 5.8 1.9 2.9.1.5.3 1.1 1.1 1.5 1.5 2.6 2.6 3 4.8 3.1 8.9.2 6.4 0 12.9 0 19.4 0 6.1.7 12.8-4.5 17-4.3 3.5-11.4 2.5-16.6 2.5-6.8 0-13.5.1-20.3 0h-1.4c-.9 0-1.7-.1-2.6-.2.4.1-5.8-1.9-2.9-.1-3.8-2.3-4.4-5.8-4.6-10-.3-6.6 0-13.2 0-19.8 0-2.2-.1-4.4 0-6.5.2-5.4 1.9-7.9 5.5-11.5 1-1-2.7-4.3-3.8-3.2-2.9 2.9-4.6 4.5-5.3 8.7-.5 2.7-.4 5.4-.4 8.2 0 7.1-.2 14.2 0 21.3.3 7.5 4.1 14.1 11.6 16 6.4 1.6 13.6.8 20.2.8 6.3 0 13.2.8 19.4-.5 7.8-1.7 9.8-8.2 9.8-15.5 0-7.6.1-15.2 0-22.8-.1-6.4-2-12.3-7.7-15.8-6.2-3.9-16.5-2.3-23.2-2.3-7.8 0-16.8-1.2-24.2 1.7-1.4.5 1.9 4 3.3 3.5z"/><path fill="#4F86B5" d="M49.4 41.9c2.1-.9 5.6-1.7 7.8-1.7h30.1c2.3 0 5.8.8 7.8 1.7l3.9 3.9c.9 2.1 1.7 5.6 1.7 7.8V80c0 2.3-.8 5.8-1.7 7.8l-3.9 3.9c-2.1.9-5.6 1.7-7.8 1.7H57.2c-2.3 0-5.8-.8-7.8-1.7l-3.9-3.9c-.9-2.1-1.7-5.6-1.7-7.8V53.6c0-2.3.8-5.8 1.7-7.8l3.9-3.9z"/><path fill="#FFF" d="M51.6 42.8c5.8-2.2 12-1.7 18.1-1.7 6.4 0 12.8-.2 19.2 0 3.4.1 4.7.2 6.9 2.9 2.2 2.6 2.6 6.1 2.6 9.5.2 6.6 0 13.3 0 19.9 0 6 .5 12.3-4.6 16.4-4.2 3.5-11 2.6-16.3 2.6-6.9 0-13.8.1-20.7 0-2.2 0-4.4.2-6.2-1-3.6-2.3-4.4-6.9-4.5-10.8-.3-6.8 0-13.7 0-20.5 0-2.3-.1-4.6.1-6.9.4-5.1 2.2-7.2 5.5-10.5-.2.2-3.9-2.5-4.7-1.8-3.2 3.2-4.9 5.1-5.4 9.9-.3 2.5-.1 5.1-.1 7.6 0 6.9-.3 13.8 0 20.6.6 17.3 19.5 15.3 32 15.3 6.5 0 13.6.9 20-.5 7.9-1.7 9.6-8.5 9.6-15.7 0-7.6.1-15.1 0-22.7-.1-6.9-2.6-12.1-9.3-14.4-7-2.5-14.5-1.8-21.8-1.8-7.9 0-17.3-1.3-24.8 1.7.2-.1 3.2 2.3 4.4 1.9z"/><path fill="#FFF" stroke="#FFF" stroke-miterlimit="10" d="M44.3 40.1c1.6-.7 4.7-1.3 6.9-1.3h15.1c2.3 0 5.4.6 7 1.3 1.6.7 2.8 6.3 2.8 8.5v12.8c0 2.3-.6 5.4-1.3 6.9-.7 1.6-6.3 2.8-8.5 2.8h-15c-2.3 0-5.4-.6-6.9-1.3-1.6-.7-2.8-6.3-2.8-8.5V48.6c-.1-2.2 1.2-7.8 2.7-8.5z"/><text transform="translate(111 50.031)" fill="#FAFAFA" font-family="'RobotoCondensed-Bold'" font-size="38.114">Coordinación Provincial TIC</text><text transform="translate(147.31 78.822)" fill="#FAFAFA" font-family="'RobotoCondensed-Bold'" font-size="24.572">Ministerio de Educación - Tucumán</text></svg>