<?xml version="1.0" encoding="utf-8"?>
<!-- Generator: Adobe Illustrator 18.1.1, SVG Export Plug-In . SVG Version: 6.00 Build 0)  -->
<!DOCTYPE svg PUBLIC "-//W3C//DTD SVG 1.1//EN" "http://www.w3.org/Graphics/SVG/1.1/DTD/svg11.dtd">
<svg version="1.1" id="Capa_1" xmlns="http://www.w3.org/2000/svg" xmlns:xlink="http://www.w3.org/1999/xlink" x="0px" y="0px"
	 viewBox="0 0 550 104" enable-background="new 0 0 550 104" xml:space="preserve">
<g>
	<path fill="#1E3B72" stroke="#FFFFFF" stroke-miterlimit="10" d="M41.1,25.2c1-0.4,2.6-0.8,3.7-0.8h14.1c1.1,0,2.7,0.4,3.7,0.8
		l1.8,1.8c0.4,1,0.8,2.6,0.8,3.7V43c0,1.1-0.4,2.7-0.8,3.7l-1.8,1.8c-1,0.4-2.6,0.8-3.7,0.8H44.8c-1.1,0-2.7-0.4-3.7-0.8l-1.8-1.8
		c-0.4-1-0.8-2.6-0.8-3.7V30.7c0-1.1,0.4-2.7,0.8-3.7L41.1,25.2z"/>
	<path fill="#4F86B5" stroke="#FFFFFF" stroke-miterlimit="10" d="M54,36.3c1-0.4,2.6-0.8,3.7-0.8h14.1c1.1,0,2.7,0.4,3.7,0.8
		l1.8,1.8c0.4,1,0.8,2.6,0.8,3.7v12.3c0,1.1-0.4,2.7-0.8,3.7l-1.8,1.8c-1,0.4-2.6,0.8-3.7,0.8H57.7c-1.1,0-2.7-0.4-3.7-0.8l-1.8-1.8
		c-0.4-1-0.8-2.6-0.8-3.7V41.8c0-1.1,0.4-2.7,0.8-3.7L54,36.3z"/>
	<path fill="#FFFFFF" stroke="#FFFFFF" stroke-miterlimit="10" d="M51.7,35.5c0.7-0.3,2.2-0.6,3.2-0.6H62c1.1,0,2.5,0.3,3.2,0.6
		c0.7,0.3,1.3,2.9,1.3,4v6c0,1.1-0.3,2.5-0.6,3.2C65.6,49.4,63,50,62,50h-7.1c-1.1,0-2.5-0.3-3.2-0.6c-0.7-0.3-1.3-2.9-1.3-4v-6
		C50.3,38.4,50.9,35.8,51.7,35.5z"/>
	<g>
		<path fill="#1E3B72" d="M21.7,18c2.1-0.9,5.6-1.7,7.8-1.7h30.1c2.3,0,5.8,0.7,7.8,1.7l3.9,3.9c0.9,2.1,1.7,5.6,1.7,7.8v26.3
			c0,2.3-0.8,5.8-1.7,7.8l-3.9,3.9c-2.1,0.9-5.6,1.7-7.8,1.7H29.6c-2.3,0-5.8-0.8-7.8-1.7L17.8,64c-0.9-2.1-1.7-5.6-1.7-7.8V29.8
			c0-2.3,0.8-5.8,1.7-7.8L21.7,18z"/>
		<g>
			<path fill="#FFFFFF" d="M23.4,19.8c5.9-2.3,12.4-1.6,18.7-1.6c6.2,0,12.4-0.2,18.6,0c1,0,2,0.1,2.9,0.2c-0.4-0.1,5.8,1.9,2.9,0.1
				c0.5,0.3,1.1,1.1,1.5,1.5c2.6,2.6,3,4.8,3.1,8.9c0.2,6.4,0,12.9,0,19.4c0,6.1,0.7,12.8-4.5,17c-4.3,3.5-11.4,2.5-16.6,2.5
				c-6.8,0-13.5,0.1-20.3,0c-0.5,0-0.9,0-1.4,0c-0.9,0-1.7-0.1-2.6-0.2c0.4,0.1-5.8-1.9-2.9-0.1c-3.8-2.3-4.4-5.8-4.6-10
				c-0.3-6.6,0-13.2,0-19.8c0-2.2-0.1-4.4,0-6.5c0.2-5.4,1.9-7.9,5.5-11.5c1-1-2.7-4.3-3.8-3.2c-2.9,2.9-4.6,4.5-5.3,8.7
				c-0.5,2.7-0.4,5.4-0.4,8.2c0,7.1-0.2,14.2,0,21.3c0.3,7.5,4.1,14.1,11.6,16c6.4,1.6,13.6,0.8,20.2,0.8c6.3,0,13.2,0.8,19.4-0.5
				c7.8-1.7,9.8-8.2,9.8-15.5c0-7.6,0.1-15.2,0-22.8c-0.1-6.4-2-12.3-7.7-15.8C61.3,13,51,14.6,44.3,14.6c-7.8,0-16.8-1.2-24.2,1.7
				C18.7,16.8,22,20.3,23.4,19.8z"/>
		</g>
	</g>
	<g>
		<path fill="#4F86B5" d="M49.4,41.9c2.1-0.9,5.6-1.7,7.8-1.7h30.1c2.3,0,5.8,0.8,7.8,1.7l3.9,3.9c0.9,2.1,1.7,5.6,1.7,7.8V80
			c0,2.3-0.8,5.8-1.7,7.8l-3.9,3.9c-2.1,0.9-5.6,1.7-7.8,1.7H57.2c-2.3,0-5.8-0.8-7.8-1.7l-3.9-3.9c-0.9-2.1-1.7-5.6-1.7-7.8V53.6
			c0-2.3,0.8-5.8,1.7-7.8L49.4,41.9z"/>
		<g>
			<path fill="#FFFFFF" d="M51.6,42.8c5.8-2.2,12-1.7,18.1-1.7c6.4,0,12.8-0.2,19.2,0c3.4,0.1,4.7,0.2,6.9,2.9
				c2.2,2.6,2.6,6.1,2.6,9.5c0.2,6.6,0,13.3,0,19.9c0,6,0.5,12.3-4.6,16.4c-4.2,3.5-11,2.6-16.3,2.6c-6.9,0-13.8,0.1-20.7,0
				c-2.2,0-4.4,0.2-6.2-1c-3.6-2.3-4.4-6.9-4.5-10.8c-0.3-6.8,0-13.7,0-20.5c0-2.3-0.1-4.6,0.1-6.9c0.4-5.1,2.2-7.2,5.5-10.5
				c-0.2,0.2-3.9-2.5-4.7-1.8c-3.2,3.2-4.9,5.1-5.4,9.9c-0.3,2.5-0.1,5.1-0.1,7.6c0,6.9-0.3,13.8,0,20.6
				C42.1,96.3,61,94.3,73.5,94.3c6.5,0,13.6,0.9,20-0.5c7.9-1.7,9.6-8.5,9.6-15.7c0-7.6,0.1-15.1,0-22.7c-0.1-6.9-2.6-12.1-9.3-14.4
				c-7-2.5-14.5-1.8-21.8-1.8c-7.9,0-17.3-1.3-24.8,1.7C47.4,40.8,50.4,43.2,51.6,42.8z"/>
		</g>
	</g>
	<path fill="#FFFFFF" stroke="#FFFFFF" stroke-miterlimit="10" d="M44.3,40.1c1.6-0.7,4.7-1.3,6.9-1.3h15.1c2.3,0,5.4,0.6,7,1.3
		c1.6,0.7,2.8,6.3,2.8,8.5v12.8c0,2.3-0.6,5.4-1.3,6.9c-0.7,1.6-6.3,2.8-8.5,2.8H51.3c-2.3,0-5.4-0.6-6.9-1.3
		c-1.6-0.7-2.8-6.3-2.8-8.5V48.6C41.5,46.4,42.8,40.8,44.3,40.1z"/>
	<text transform="matrix(1 0 0 1 111.0002 50.0313)" fill="#FAFAFA" font-family="'RobotoCondensed-Bold'" font-size="38.1138">Coordinación Provincial TIC</text>
	<text transform="matrix(1 0 0 1 147.3092 78.8221)" fill="#FAFAFA" font-family="'RobotoCondensed-Bold'" font-size="24.5716">Ministerio de Educación - Tucumán</text>
</g>
</svg>
